<?xml version="1.0" encoding="utf-8"?>
<!-- Generator: Adobe Illustrator 20.1.0, SVG Export Plug-In . SVG Version: 6.00 Build 0)  -->
<svg version="1.1" id="Layer_1" xmlns="http://www.w3.org/2000/svg" xmlns:xlink="http://www.w3.org/1999/xlink" x="0px" y="0px"
	 viewBox="0 0 228 228" style="enable-background:new 0 0 228 228;" xml:space="preserve">
<style type="text/css">
	.st0{fill:#3C78AA;}
	.st1{fill:#E69650;}
</style>
<g>
	<rect x="0" class="st0" width="228" height="228"/>
</g>
<g>
	<path class="st1" d="M154.5,128.1c-0.6-15.4-1.1-34-1.1-52.6h-0.6c-4,16.3-9.3,34.6-14.2,49.6l-15.6,50h-22.6l-13.7-49.6
		c-4.2-15-8.6-33.2-11.6-50h-0.4c-0.8,17.3-1.3,37.1-2.3,53l-2.3,48.6H43.3L51.5,49h38.6l12.5,42.8c4,14.8,8,30.8,10.8,45.8h0.6
		c3.6-14.8,8-31.7,12.2-46L139.8,49h37.8l7,128.1h-28.3L154.5,128.1z"/>
</g>
</svg>
